<svg width="146" height="35" viewBox="0 0 146 35" fill="none" xmlns="http://www.w3.org/2000/svg">
<path d="M25 100.36C24.28 103.56 21.8 105.52 17.56 106.24C13.64 106.96 9.92 106.52 6.4 104.92C2.48 103.24 0.76 100.88 1.24 97.84C0.76 93.2 3.2 83.12 8.56 67.6C16.56 44.32 24.56 27.68 32.56 17.68C34.64 15.12 36.4 13.48 37.84 12.76C39.36 11.96 41.08 11.24 43 10.6C44.92 9.96 46.92 9.36 49 8.79999C53.16 7.67999 57.08 6.91999 60.76 6.51999C64.52 6.04 67.88 6.48 70.84 7.84C73.8 9.12 76.08 11.04 77.68 13.6C79.36 16.16 80.4 19.2 80.8 22.72C81.2 26.16 81.08 29.8 80.44 33.64C79.8 37.4 78.64 41.24 76.96 45.16C75.28 49 73.16 52.6 70.6 55.96C65 63.32 58.44 68.08 50.92 70.24L52.12 72.28C53.16 73.88 54.4 75.64 55.84 77.56C57.36 79.48 58.84 81.44 60.28 83.44C61.8 85.44 63.16 87.44 64.36 89.44C65.56 91.44 66.44 93.32 67 95.08C68.28 99 67.28 101.84 64 103.6C61.36 105.2 59.28 105.6 57.76 104.8C57.12 104.4 56.48 103.88 55.84 103.24C55.2 102.68 54.32 102.2 53.2 101.8C48.48 103.16 44.88 101.96 42.4 98.2C40.88 95.8 39.72 93.6 38.92 91.6C38.12 89.6 37.44 87.92 36.88 86.56C35.44 83.6 33.8 81.04 31.96 78.88C31.08 81.04 30.08 83.8 28.96 87.16C27.6 91.4 26.08 95.8 24.4 100.36H25ZM49.24 30.52C47.72 33.96 46.68 36.36 46.12 37.72C45 40.44 43.76 43.44 42.4 46.72C42.16 48.48 41.96 49.72 41.8 50.44L43.48 48.76L45.52 47.8C46.96 47 48.28 46.28 49.48 45.64C50.68 45 51.76 44.2 52.72 43.24C54.56 41.4 56.16 38.4 57.52 34.24C57.52 33.44 57.64 32.64 57.88 31.84C58.2 31.04 58.4 30.24 58.48 29.44C58.8 27.68 58.08 26.44 56.32 25.72C54.72 25.56 52.72 26.88 50.32 29.68C49.84 30.24 49.48 30.52 49.24 30.52ZM128.804 48.52L129.284 48.64C129.444 48.64 129.524 48.68 129.524 48.76C131.604 47.96 133.324 48.56 134.684 50.56C135.564 51.92 136.244 54 136.724 56.8C136.884 60.64 136.484 65.96 135.524 72.76C133.684 86.52 132.684 94.72 132.524 97.36C132.684 100.16 130.964 102.08 127.364 103.12C124.244 104.08 121.124 104.04 118.004 103C114.724 101.88 113.364 100.16 113.924 97.84C113.284 99.04 112.644 99.88 112.004 100.36C111.364 100.92 110.084 101.64 108.164 102.52C106.324 103.48 103.684 104.24 100.244 104.8C96.8038 105.44 93.3638 105.6 89.9238 105.28C86.4838 105.04 83.3238 104.2 80.4438 102.76C77.6438 101.4 75.7638 99.24 74.8038 96.28C72.9637 90.52 73.2037 83.2 75.5238 74.32C77.1238 68.48 80.0038 63.32 84.1638 58.84C88.9638 53.72 94.4038 49.48 100.484 46.12C105.044 43.64 109.444 42.16 113.684 41.68C115.124 41.52 116.364 41.56 117.404 41.8C118.524 42.04 119.684 42.28 120.884 42.52C122.164 42.76 123.364 43.12 124.484 43.6C127.364 44.8 128.804 46.44 128.804 48.52ZM106.604 80.32C107.164 79.2 107.604 77.8 107.924 76.12C108.324 74.44 108.844 72.6 109.484 70.6C103.004 73.24 98.0438 76.48 94.6038 80.32C90.8438 84.56 91.0838 87.48 95.3238 89.08C99.0038 90.04 101.684 89.44 103.364 87.28C104.084 86.32 104.724 85.12 105.284 83.68C105.844 82.24 106.524 80.76 107.324 79.24C107.084 79.64 106.844 80 106.604 80.32ZM158.22 48.04C163.58 45.88 167.18 45.84 169.02 47.92C169.98 49.04 170.46 50.6 170.46 52.6V53.2C173.42 49.76 178.58 46.88 185.94 44.56C193.7 42.16 200.1 41.48 205.14 42.52C211.7 43.88 215.38 48.16 216.18 55.36C216.82 61.44 215.42 69.16 211.98 78.52C210.86 80.92 209.98 82.88 209.34 84.4C208.78 85.84 208.26 87.16 207.78 88.36C206.74 90.6 205.1 93.28 202.86 96.4C201.58 98.8 199.58 100.64 196.86 101.92C194.22 103.2 191.58 103.92 188.94 104.08C186.38 104.32 184.26 103.92 182.58 102.88C180.9 101.92 180.42 100.36 181.14 98.2C182.98 93.24 184.5 88.72 185.7 84.64C186.9 80.56 188.14 77.08 189.42 74.2C190.62 70.12 190.78 67.56 189.9 66.52C189.18 65.72 187.94 65.84 186.18 66.88C184.66 67.84 183.58 68.96 182.94 70.24C181.5 71.28 178.78 75.44 174.78 82.72C173.66 84.72 172.54 86.72 171.42 88.72C170.38 90.64 169.38 92.44 168.42 94.12C167.54 95.8 166.74 97.2 166.02 98.32C165.38 99.44 164.78 100.16 164.22 100.48C163.74 100.88 163.3 101.12 162.9 101.2C162.58 101.36 162.3 101.52 162.06 101.68C161.82 101.84 161.62 102.36 161.46 103.24C161.14 105.08 159.22 106.44 155.7 107.32C150.02 108.76 144.9 108.52 140.34 106.6C138.82 105.96 137.62 105.08 136.74 103.96C134.9 100.28 138.06 87.76 146.22 66.4C149.1 58.88 150.98 54.4 151.86 52.96C153.86 49.92 155.14 48.2 155.7 47.8C156.34 47.4 157.18 47.48 158.22 48.04ZM248.981 10.24L249.101 9.76L250.181 8.68C251.061 6.59999 252.021 5.35999 253.061 4.95999C253.621 4.8 254.341 4.6 255.221 4.35999C256.101 4.12 257.261 3.52 258.701 2.56C259.261 1.44 260.421 0.959995 262.181 1.11999C263.941 1.2 265.661 1.76 267.341 2.79999C269.101 3.75999 270.501 5.12 271.541 6.88C272.661 8.64 272.941 10.48 272.381 12.4C271.821 14.24 271.341 15.64 270.941 16.6C270.621 17.48 270.261 18.32 269.861 19.12C269.541 19.92 269.101 20.84 268.541 21.88C268.061 22.84 267.421 24.16 266.621 25.84L262.661 34.12C262.261 35.16 261.901 35.76 261.581 35.92C261.341 36.08 261.101 36.36 260.861 36.76C261.581 36.6 262.181 36.48 262.661 36.4C263.141 36.32 263.621 36.24 264.101 36.16C265.221 36 266.501 35.84 267.941 35.68C268.821 35.84 269.581 35.92 270.221 35.92H271.901C272.861 35.92 274.021 36.2 275.381 36.76C276.741 37.24 277.621 38.12 278.021 39.4C278.421 40.68 278.461 42 278.141 43.36C277.821 44.64 277.181 45.84 276.221 46.96C275.261 48.08 274.021 48.68 272.501 48.76C265.541 50.68 260.581 51.72 257.621 51.88L256.901 52.72V52.84C256.101 54.76 255.221 57.2 254.261 60.16C253.381 63.04 252.381 66.2 251.261 69.64C250.221 73 249.141 76.52 248.021 80.2C246.901 83.8 245.741 87.28 244.541 90.64C240.701 101.92 237.901 108.04 236.141 109C235.501 109.32 234.821 109.52 234.101 109.6C233.461 109.76 233.101 109.88 233.021 109.96C230.221 109.8 227.901 109.24 226.061 108.28C224.221 107.32 222.981 106.4 222.341 105.52C221.701 104.64 221.541 103.64 221.861 102.52C223.381 88.6 226.421 73.36 230.981 56.8C229.381 56.8 228.261 56.96 227.621 57.28C226.421 57.92 224.981 58.28 223.301 58.36H223.181C221.901 58.28 220.741 57.68 219.701 56.56C218.661 55.44 218.021 54.16 217.781 52.72C217.541 51.28 217.781 49.8 218.501 48.28C219.221 46.76 220.661 45.56 222.821 44.68C225.381 43.96 227.261 43.36 228.461 42.88C230.781 41.92 232.701 41.24 234.221 40.84C235.821 40.44 236.701 40.2 236.861 40.12C237.101 39.96 237.261 39.84 237.341 39.76C237.581 39.6 238.181 39.52 239.141 39.52C239.621 37.2 240.101 34.84 240.581 32.44C241.061 30.04 241.661 27.6 242.381 25.12C243.981 19.36 246.181 14.4 248.981 10.24ZM310.607 82.24C309.087 82.96 307.607 83.52 306.167 83.92C304.727 84.32 303.047 84.72 301.127 85.12C296.087 86.16 292.447 86.76 290.207 86.92C290.447 87.72 291.647 88.68 293.807 89.8C295.247 90.04 296.807 89.84 298.487 89.2C300.247 88.48 302.047 87.84 303.887 87.28C305.807 86.64 307.647 86.28 309.407 86.2C311.247 86.12 312.967 86.8 314.567 88.24C315.207 89.68 315.727 90.52 316.127 90.76C316.527 91 316.887 91.12 317.207 91.12C317.527 91.12 317.887 91.24 318.287 91.48C318.687 91.72 319.247 92.64 319.967 94.24C320.767 95.84 320.567 97.36 319.367 98.8C318.247 100.24 316.487 101.48 314.087 102.52C311.687 103.56 308.887 104.4 305.687 105.04C302.487 105.68 299.287 106.12 296.087 106.36C288.887 106.92 283.407 106.36 279.647 104.68C274.207 102.84 270.687 99.2 269.087 93.76C267.007 86.56 268.167 78.16 272.567 68.56C274.567 64.08 277.727 59.28 282.047 54.16C285.807 49.68 290.007 46.44 294.647 44.44C300.007 42.12 305.607 41.04 311.447 41.2C317.687 41.36 322.007 44.08 324.407 49.36C325.607 52.16 325.847 56.08 325.127 61.12C323.847 67.68 322.167 72.32 320.087 75.04C318.007 77.68 314.847 80.08 310.607 82.24ZM303.647 63.28C299.407 62.4 296.087 64.8 293.687 70.48C292.967 72 292.407 73.6 292.007 75.28C294.727 75.6 297.607 74.08 300.647 70.72C301.767 69.36 302.607 68 303.167 66.64C303.727 65.2 303.887 64.08 303.647 63.28ZM339.097 50.32C340.217 47.44 341.777 45.28 343.777 43.84C345.857 42.32 347.817 41.4 349.657 41.08C351.577 40.68 353.137 40.88 354.337 41.68C355.617 42.48 356.057 43.72 355.657 45.4C357.177 43.88 359.377 42.48 362.257 41.2C365.137 39.92 367.417 39.04 369.097 38.56C370.777 38.08 372.217 37.84 373.417 37.84C376.057 38 376.817 39.44 375.697 42.16C377.057 42.4 378.057 43.28 378.697 44.8C379.337 46.32 379.417 48 378.937 49.84C378.457 51.68 377.377 53.48 375.697 55.24C374.017 57 371.737 58.2 368.857 58.84C366.057 59.48 363.697 60.96 361.777 63.28C359.937 65.52 358.297 68.32 356.857 71.68C354.457 77.36 352.297 85.4 350.377 95.8C349.737 99.56 347.137 102.72 342.577 105.28C338.257 107.76 334.297 108.48 330.697 107.44C326.617 106.32 324.817 103.32 325.297 98.44C325.457 95 326.497 90.44 328.417 84.76C330.337 79 331.817 74.68 332.857 71.8C333.897 68.84 334.617 66.6 335.017 65.08L339.097 50.32ZM400.833 46.72C401.233 51.52 401.593 56.36 401.913 61.24C402.233 66.04 402.713 70.84 403.353 75.64C404.793 72.68 406.113 69.56 407.313 66.28C408.593 63 409.953 59.76 411.393 56.56C414.833 49.04 418.633 43.52 422.793 40C425.353 37.2 429.193 35.8 434.312 35.8C437.353 35.8 439.273 36.76 440.073 38.68C440.473 39.64 440.353 40.92 439.713 42.52C443.633 45.32 444.473 48.56 442.233 52.24C441.593 53.2 440.953 54.08 440.313 54.88C436.873 60.64 433.713 65.96 430.833 70.84C426.113 78.92 421.873 85.84 418.113 91.6C416.833 93.52 415.033 95.68 412.713 98.08C410.473 100.4 407.993 102.4 405.273 104.08C398.873 108.24 393.793 109 390.033 106.36C387.553 106.04 385.233 105.24 383.073 103.96C380.913 102.68 379.273 101 378.153 98.92C376.473 94.52 376.873 84.44 379.353 68.68C379.913 65.16 380.273 62.52 380.433 60.76C380.593 59 380.793 57.4 381.033 55.96C381.273 54.52 381.473 53.16 381.633 51.88C381.793 50.6 381.953 49.32 382.113 48.04C382.273 46.68 382.633 45.44 383.193 44.32C384.553 41.76 387.033 40.36 390.633 40.12H392.073C393.513 40.44 394.873 40.8 396.153 41.2C398.313 42 399.753 43.52 400.473 45.76C400.553 46 400.673 46.32 400.833 46.72ZM490.327 48.52L490.807 48.64C490.967 48.64 491.047 48.68 491.047 48.76C493.127 47.96 494.847 48.56 496.207 50.56C497.087 51.92 497.767 54 498.247 56.8C498.407 60.64 498.007 65.96 497.047 72.76C495.207 86.52 494.207 94.72 494.047 97.36C494.207 100.16 492.487 102.08 488.887 103.12C485.767 104.08 482.647 104.04 479.527 103C476.247 101.88 474.887 100.16 475.447 97.84C474.807 99.04 474.167 99.88 473.527 100.36C472.887 100.92 471.607 101.64 469.687 102.52C467.847 103.48 465.207 104.24 461.767 104.8C458.327 105.44 454.887 105.6 451.447 105.28C448.007 105.04 444.847 104.2 441.967 102.76C439.167 101.4 437.287 99.24 436.327 96.28C434.487 90.52 434.727 83.2 437.047 74.32C438.647 68.48 441.527 63.32 445.687 58.84C450.487 53.72 455.927 49.48 462.007 46.12C466.567 43.64 470.967 42.16 475.207 41.68C476.647 41.52 477.887 41.56 478.927 41.8C480.047 42.04 481.207 42.28 482.407 42.52C483.687 42.76 484.887 43.12 486.007 43.6C488.887 44.8 490.327 46.44 490.327 48.52ZM468.127 80.32C468.687 79.2 469.127 77.8 469.447 76.12C469.847 74.44 470.367 72.6 471.007 70.6C464.527 73.24 459.567 76.48 456.127 80.32C452.367 84.56 452.607 87.48 456.847 89.08C460.527 90.04 463.207 89.44 464.887 87.28C465.607 86.32 466.247 85.12 466.807 83.68C467.367 82.24 468.047 80.76 468.847 79.24C468.607 79.64 468.367 80 468.127 80.32ZM523.223 95.32C522.743 97 522.183 98.48 521.543 99.76C520.903 101.04 519.943 102.24 518.663 103.36C517.383 104.48 515.863 105.52 514.103 106.48C512.343 107.52 510.663 108.24 509.063 108.64C505.383 109.44 503.463 108.36 503.303 105.4C503.063 104.6 502.543 104.12 501.743 103.96C501.023 103.88 500.343 103.68 499.703 103.36C498.023 102.64 497.543 100.68 498.263 97.48C499.543 93.08 500.943 87.76 502.463 81.52C503.983 75.2 505.943 68.28 508.343 60.76C514.023 42.52 521.063 26.08 529.463 11.44C530.023 10.72 530.663 9.8 531.383 8.68C532.103 7.48 533.023 6.4 534.143 5.43999C536.943 2.87999 540.383 2.27999 544.463 3.64C544.383 4.68 544.623 5.64 545.183 6.51999C545.743 7.31999 546.383 8.16 547.103 9.04C548.943 11.12 549.783 13 549.623 14.68C541.143 34.76 533.503 57.2 526.703 82C525.903 84.88 525.263 87.4 524.783 89.56C524.303 91.72 523.783 93.64 523.223 95.32Z" fill="white"/>
</svg>
