<svg width="147" height="30" viewBox="0 0 147 30" fill="none" xmlns="http://www.w3.org/2000/svg">
<path d="M6.6 27.096C6.408 27.9493 5.74667 28.472 4.616 28.664C3.57067 28.856 2.57867 28.7387 1.64 28.312C0.594667 27.864 0.136 27.2347 0.264 26.424C0.136 25.1867 0.786667 22.4987 2.216 18.36C4.34933 12.152 6.48267 7.71467 8.616 5.048C9.17067 4.36533 9.64 3.928 10.024 3.736C10.4293 3.52267 10.888 3.33066 11.4 3.16C11.912 2.98933 12.4453 2.82933 13 2.68C14.1093 2.38133 15.1547 2.17867 16.136 2.072C17.1387 1.944 18.0347 2.06133 18.824 2.424C19.6133 2.76533 20.2213 3.27733 20.648 3.96C21.096 4.64267 21.3733 5.45333 21.48 6.392C21.5867 7.30933 21.5547 8.28 21.384 9.304C21.2133 10.3067 20.904 11.3307 20.456 12.376C20.008 13.4 19.4427 14.36 18.76 15.256C17.2667 17.2187 15.5173 18.488 13.512 19.064L13.832 19.608C14.1093 20.0347 14.44 20.504 14.824 21.016C15.2293 21.528 15.624 22.0507 16.008 22.584C16.4133 23.1173 16.776 23.6507 17.096 24.184C17.416 24.7173 17.6507 25.2187 17.8 25.688C18.1413 26.7333 17.8747 27.4907 17 27.96C16.296 28.3867 15.7413 28.4933 15.336 28.28C15.1653 28.1733 14.9947 28.0347 14.824 27.864C14.6533 27.7147 14.4187 27.5867 14.12 27.48C12.8613 27.8427 11.9013 27.5227 11.24 26.52C10.8347 25.88 10.5253 25.2933 10.312 24.76C10.0987 24.2267 9.91733 23.7787 9.768 23.416C9.384 22.6267 8.94667 21.944 8.456 21.368C8.22133 21.944 7.95467 22.68 7.656 23.576C7.29333 24.7067 6.888 25.88 6.44 27.096H6.6ZM13.064 8.472C12.6587 9.38933 12.3813 10.0293 12.232 10.392C11.9333 11.1173 11.6027 11.9173 11.24 12.792C11.176 13.2613 11.1227 13.592 11.08 13.784L11.528 13.336L12.072 13.08C12.456 12.8667 12.808 12.6747 13.128 12.504C13.448 12.3333 13.736 12.12 13.992 11.864C14.4827 11.3733 14.9093 10.5733 15.272 9.464C15.272 9.25067 15.304 9.03733 15.368 8.824C15.4533 8.61067 15.5067 8.39733 15.528 8.184C15.6133 7.71467 15.4213 7.384 14.952 7.192C14.5253 7.14933 13.992 7.50133 13.352 8.248C13.224 8.39733 13.128 8.472 13.064 8.472ZM34.281 13.272L34.409 13.304C34.4517 13.304 34.473 13.3147 34.473 13.336C35.0277 13.1227 35.4863 13.2827 35.849 13.816C36.0837 14.1787 36.265 14.7333 36.393 15.48C36.4357 16.504 36.329 17.9227 36.073 19.736C35.5823 23.4053 35.3157 25.592 35.273 26.296C35.3157 27.0427 34.857 27.5547 33.897 27.832C33.065 28.088 32.233 28.0773 31.401 27.8C30.5263 27.5013 30.1637 27.0427 30.313 26.424C30.1423 26.744 29.9717 26.968 29.801 27.096C29.6303 27.2453 29.289 27.4373 28.777 27.672C28.2863 27.928 27.5823 28.1307 26.665 28.28C25.7477 28.4507 24.8303 28.4933 23.913 28.408C22.9957 28.344 22.153 28.12 21.385 27.736C20.6383 27.3733 20.137 26.7973 19.881 26.008C19.3903 24.472 19.4543 22.52 20.073 20.152C20.4997 18.5947 21.2677 17.2187 22.377 16.024C23.657 14.6587 25.1077 13.528 26.729 12.632C27.945 11.9707 29.1183 11.576 30.249 11.448C30.633 11.4053 30.9637 11.416 31.241 11.48C31.5397 11.544 31.849 11.608 32.169 11.672C32.5103 11.736 32.8303 11.832 33.129 11.96C33.897 12.28 34.281 12.7173 34.281 13.272ZM28.361 21.752C28.5103 21.4533 28.6277 21.08 28.713 20.632C28.8197 20.184 28.9583 19.6933 29.129 19.16C27.401 19.864 26.0783 20.728 25.161 21.752C24.1583 22.8827 24.2223 23.6613 25.353 24.088C26.3343 24.344 27.049 24.184 27.497 23.608C27.689 23.352 27.8597 23.032 28.009 22.648C28.1583 22.264 28.3397 21.8693 28.553 21.464C28.489 21.5707 28.425 21.6667 28.361 21.752ZM42.1253 13.144C43.5546 12.568 44.5146 12.5573 45.0052 13.112C45.2613 13.4107 45.3893 13.8267 45.3893 14.36V14.52C46.1786 13.6027 47.5546 12.8347 49.5173 12.216C51.5866 11.576 53.2933 11.3947 54.6373 11.672C56.3866 12.0347 57.3679 13.176 57.5813 15.096C57.7519 16.7173 57.3786 18.776 56.4613 21.272C56.1626 21.912 55.9279 22.4347 55.7573 22.84C55.6079 23.224 55.4693 23.576 55.3413 23.896C55.0639 24.4933 54.6266 25.208 54.0293 26.04C53.6879 26.68 53.1546 27.1707 52.4293 27.512C51.7253 27.8533 51.0213 28.0453 50.3173 28.088C49.6346 28.152 49.0693 28.0453 48.6213 27.768C48.1733 27.512 48.0453 27.096 48.2373 26.52C48.7279 25.1973 49.1333 23.992 49.4533 22.904C49.7733 21.816 50.1039 20.888 50.4453 20.12C50.7653 19.032 50.8079 18.3493 50.5733 18.072C50.3813 17.8587 50.0506 17.8907 49.5813 18.168C49.1759 18.424 48.8879 18.7227 48.7173 19.064C48.3333 19.3413 47.6079 20.4507 46.5413 22.392C46.2426 22.9253 45.9439 23.4587 45.6453 23.992C45.3679 24.504 45.1013 24.984 44.8453 25.432C44.6106 25.88 44.3973 26.2533 44.2053 26.552C44.0346 26.8507 43.8746 27.0427 43.7253 27.128C43.5973 27.2347 43.4799 27.2987 43.3733 27.32C43.2879 27.3627 43.2133 27.4053 43.1493 27.448C43.0853 27.4907 43.0319 27.6293 42.9893 27.864C42.9039 28.3547 42.3919 28.7173 41.4533 28.952C39.9386 29.336 38.5733 29.272 37.3573 28.76C36.9519 28.5893 36.6319 28.3547 36.3972 28.056C35.9066 27.0747 36.7493 23.736 38.9253 18.04C39.6933 16.0347 40.1946 14.84 40.4293 14.456C40.9626 13.6453 41.3039 13.1867 41.4533 13.08C41.6239 12.9733 41.8479 12.9947 42.1253 13.144ZM66.3283 3.064L66.3603 2.936L66.6483 2.648C66.8829 2.09333 67.1389 1.76266 67.4163 1.656C67.5656 1.61333 67.7576 1.56 67.9923 1.496C68.2269 1.432 68.5363 1.272 68.9203 1.016C69.0696 0.717332 69.3789 0.589332 69.8483 0.631998C70.3176 0.653332 70.7763 0.802666 71.2243 1.08C71.6936 1.336 72.0669 1.69867 72.3443 2.168C72.6429 2.63733 72.7176 3.128 72.5683 3.64C72.4189 4.13067 72.2909 4.504 72.1843 4.76C72.0989 4.99467 72.0029 5.21867 71.8963 5.432C71.8109 5.64533 71.6936 5.89067 71.5443 6.168C71.4163 6.424 71.2456 6.776 71.0323 7.224L69.9763 9.432C69.8696 9.70933 69.7736 9.86933 69.6883 9.912C69.6243 9.95467 69.5603 10.0293 69.4963 10.136C69.6883 10.0933 69.8483 10.0613 69.9763 10.04C70.1043 10.0187 70.2323 9.99733 70.3603 9.976C70.6589 9.93333 71.0003 9.89067 71.3843 9.848C71.6189 9.89067 71.8216 9.912 71.9923 9.912H72.4403C72.6963 9.912 73.0056 9.98667 73.3683 10.136C73.7309 10.264 73.9656 10.4987 74.0723 10.84C74.1789 11.1813 74.1896 11.5333 74.1042 11.896C74.0189 12.2373 73.8483 12.5573 73.5923 12.856C73.3363 13.1547 73.0056 13.3147 72.6003 13.336C70.7443 13.848 69.4216 14.1253 68.6323 14.168L68.4403 14.392V14.424C68.2269 14.936 67.9923 15.5867 67.7363 16.376C67.5016 17.144 67.2349 17.9867 66.9363 18.904C66.6589 19.8 66.3709 20.7387 66.0723 21.72C65.7736 22.68 65.4643 23.608 65.1443 24.504C64.1203 27.512 63.3736 29.144 62.9043 29.4C62.7336 29.4853 62.5523 29.5387 62.3602 29.56C62.1896 29.6027 62.0936 29.6347 62.0723 29.656C61.3256 29.6133 60.7069 29.464 60.2163 29.208C59.7256 28.952 59.3949 28.7067 59.2243 28.472C59.0536 28.2373 59.0109 27.9707 59.0963 27.672C59.5016 23.96 60.3123 19.896 61.5283 15.48C61.1016 15.48 60.8029 15.5227 60.6323 15.608C60.3123 15.7787 59.9283 15.8747 59.4803 15.896H59.4483C59.1069 15.8747 58.7976 15.7147 58.5203 15.416C58.2429 15.1173 58.0723 14.776 58.0083 14.392C57.9443 14.008 58.0083 13.6133 58.2003 13.208C58.3923 12.8027 58.7763 12.4827 59.3523 12.248C60.0349 12.056 60.5363 11.896 60.8563 11.768C61.4749 11.512 61.9869 11.3307 62.3923 11.224C62.8189 11.1173 63.0536 11.0533 63.0963 11.032C63.1603 10.9893 63.2029 10.9573 63.2243 10.936C63.2883 10.8933 63.4483 10.872 63.7043 10.872C63.8323 10.2533 63.9603 9.624 64.0883 8.984C64.2163 8.344 64.3763 7.69333 64.5683 7.032C64.9949 5.496 65.5816 4.17333 66.3283 3.064ZM82.7618 22.264C82.3564 22.456 81.9618 22.6053 81.5778 22.712C81.1938 22.8187 80.7458 22.9253 80.2338 23.032C78.8898 23.3093 77.9191 23.4693 77.3218 23.512C77.3858 23.7253 77.7058 23.9813 78.2818 24.28C78.6658 24.344 79.0818 24.2907 79.5298 24.12C79.9991 23.928 80.4791 23.7573 80.9698 23.608C81.4818 23.4373 81.9724 23.3413 82.4418 23.32C82.9324 23.2987 83.3911 23.48 83.8178 23.864C83.9884 24.248 84.1271 24.472 84.2338 24.536C84.3404 24.6 84.4364 24.632 84.5218 24.632C84.6071 24.632 84.7031 24.664 84.8098 24.728C84.9164 24.792 85.0658 25.0373 85.2578 25.464C85.4711 25.8907 85.4178 26.296 85.0978 26.68C84.7991 27.064 84.3298 27.3947 83.6898 27.672C83.0498 27.9493 82.3031 28.1733 81.4498 28.344C80.5964 28.5147 79.7431 28.632 78.8898 28.696C76.9698 28.8453 75.5084 28.696 74.5058 28.248C73.0551 27.7573 72.1164 26.7867 71.6898 25.336C71.1351 23.416 71.4444 21.176 72.6178 18.616C73.1511 17.4213 73.9938 16.1413 75.1458 14.776C76.1484 13.5813 77.2684 12.7173 78.5058 12.184C79.9351 11.5653 81.4284 11.2773 82.9858 11.32C84.6498 11.3627 85.8018 12.088 86.4418 13.496C86.7618 14.2427 86.8258 15.288 86.6338 16.632C86.2924 18.3813 85.8444 19.6187 85.2898 20.344C84.7351 21.048 83.8924 21.688 82.7618 22.264ZM80.9058 17.208C79.7751 16.9733 78.8898 17.6133 78.2498 19.128C78.0578 19.5333 77.9084 19.96 77.8018 20.408C78.5271 20.4933 79.2951 20.088 80.1058 19.192C80.4044 18.8293 80.6284 18.4667 80.7778 18.104C80.9271 17.72 80.9698 17.4213 80.9058 17.208ZM90.3593 13.752C90.6579 12.984 91.0739 12.408 91.6073 12.024C92.1619 11.6187 92.6846 11.3733 93.1753 11.288C93.6873 11.1813 94.1033 11.2347 94.4233 11.448C94.7646 11.6613 94.8819 11.992 94.7753 12.44C95.1806 12.0347 95.7673 11.6613 96.5353 11.32C97.3033 10.9787 97.9113 10.744 98.3593 10.616C98.8073 10.488 99.1913 10.424 99.5113 10.424C100.215 10.4667 100.418 10.8507 100.119 11.576C100.482 11.64 100.749 11.8747 100.919 12.28C101.09 12.6853 101.111 13.1333 100.983 13.624C100.855 14.1147 100.567 14.5947 100.119 15.064C99.6713 15.5333 99.0633 15.8533 98.2953 16.024C97.5486 16.1947 96.9193 16.5893 96.4073 17.208C95.9166 17.8053 95.4793 18.552 95.0953 19.448C94.4553 20.9627 93.8793 23.1067 93.3673 25.88C93.1966 26.8827 92.5033 27.7253 91.2873 28.408C90.1353 29.0693 89.0793 29.2613 88.1193 28.984C87.0312 28.6853 86.5512 27.8853 86.6792 26.584C86.7219 25.6667 86.9992 24.4507 87.5113 22.936C88.0233 21.4 88.4179 20.248 88.6953 19.48C88.9726 18.6907 89.1646 18.0933 89.2713 17.688L90.3593 13.752ZM106.822 12.792C106.929 14.072 107.025 15.3627 107.11 16.664C107.195 17.944 107.323 19.224 107.494 20.504C107.878 19.7147 108.23 18.8827 108.55 18.008C108.891 17.1333 109.254 16.2693 109.638 15.416C110.555 13.4107 111.569 11.9387 112.678 11C113.361 10.2533 114.385 9.88 115.75 9.88C116.561 9.88 117.073 10.136 117.286 10.648C117.393 10.904 117.361 11.2453 117.19 11.672C118.235 12.4187 118.459 13.2827 117.862 14.264C117.691 14.52 117.521 14.7547 117.35 14.968C116.433 16.504 115.59 17.9227 114.822 19.224C113.563 21.3787 112.433 23.224 111.43 24.76C111.089 25.272 110.609 25.848 109.99 26.488C109.393 27.1067 108.731 27.64 108.006 28.088C106.299 29.1973 104.945 29.4 103.942 28.696C103.281 28.6107 102.662 28.3973 102.086 28.056C101.51 27.7147 101.073 27.2667 100.774 26.712C100.326 25.5387 100.433 22.8507 101.094 18.648C101.243 17.7093 101.339 17.0053 101.382 16.536C101.425 16.0667 101.478 15.64 101.542 15.256C101.606 14.872 101.659 14.5093 101.702 14.168C101.745 13.8267 101.787 13.4853 101.83 13.144C101.873 12.7813 101.969 12.4507 102.118 12.152C102.481 11.4693 103.142 11.096 104.102 11.032H104.486C104.87 11.1173 105.233 11.2133 105.574 11.32C106.15 11.5333 106.534 11.9387 106.726 12.536C106.747 12.6 106.779 12.6853 106.822 12.792ZM130.687 13.272L130.815 13.304C130.858 13.304 130.879 13.3147 130.879 13.336C131.434 13.1227 131.893 13.2827 132.255 13.816C132.49 14.1787 132.671 14.7333 132.799 15.48C132.842 16.504 132.735 17.9227 132.479 19.736C131.989 23.4053 131.722 25.592 131.679 26.296C131.722 27.0427 131.263 27.5547 130.303 27.832C129.471 28.088 128.639 28.0773 127.807 27.8C126.933 27.5013 126.57 27.0427 126.719 26.424C126.549 26.744 126.378 26.968 126.207 27.096C126.037 27.2453 125.695 27.4373 125.183 27.672C124.693 27.928 123.989 28.1307 123.071 28.28C122.154 28.4507 121.237 28.4933 120.319 28.408C119.402 28.344 118.559 28.12 117.791 27.736C117.045 27.3733 116.543 26.7973 116.287 26.008C115.797 24.472 115.861 22.52 116.479 20.152C116.906 18.5947 117.674 17.2187 118.783 16.024C120.063 14.6587 121.514 13.528 123.135 12.632C124.351 11.9707 125.525 11.576 126.655 11.448C127.039 11.4053 127.37 11.416 127.647 11.48C127.946 11.544 128.255 11.608 128.575 11.672C128.917 11.736 129.237 11.832 129.535 11.96C130.303 12.28 130.687 12.7173 130.687 13.272ZM124.767 21.752C124.917 21.4533 125.034 21.08 125.119 20.632C125.226 20.184 125.365 19.6933 125.535 19.16C123.807 19.864 122.485 20.728 121.567 21.752C120.565 22.8827 120.629 23.6613 121.759 24.088C122.741 24.344 123.455 24.184 123.903 23.608C124.095 23.352 124.266 23.032 124.415 22.648C124.565 22.264 124.746 21.8693 124.959 21.464C124.895 21.5707 124.831 21.6667 124.767 21.752ZM139.46 25.752C139.332 26.2 139.182 26.5947 139.012 26.936C138.841 27.2773 138.585 27.5973 138.244 27.896C137.902 28.1947 137.497 28.472 137.028 28.728C136.558 29.0053 136.11 29.1973 135.684 29.304C134.702 29.5173 134.19 29.2293 134.148 28.44C134.084 28.2267 133.945 28.0987 133.732 28.056C133.54 28.0347 133.358 27.9813 133.188 27.896C132.739 27.704 132.611 27.1813 132.803 26.328C133.145 25.1547 133.518 23.736 133.924 22.072C134.329 20.3867 134.852 18.5413 135.492 16.536C137.006 11.672 138.884 7.288 141.124 3.384C141.273 3.192 141.444 2.94667 141.635 2.648C141.828 2.328 142.073 2.04 142.372 1.784C143.118 1.10133 144.036 0.941332 145.124 1.304C145.102 1.58133 145.166 1.83733 145.316 2.072C145.465 2.28533 145.636 2.50933 145.828 2.744C146.318 3.29867 146.542 3.8 146.5 4.248C144.238 9.60267 142.201 15.5867 140.388 22.2C140.174 22.968 140.004 23.64 139.876 24.216C139.748 24.792 139.609 25.304 139.46 25.752Z" fill="white"/>
</svg>
